HIERARCHY
ROOT Hips
{
	OFFSET 0.000000 0.000000 0.000000
	CHANNELS 6 Xposition Yposition Zposition Xrotation Yrotation Zrotation
	JOINT LeftUpLeg_virtual
	{
		OFFSET 0.000000 0.000000 0.000000
		CHANNELS 3 Xrotation Yrotation Zrotation
		JOINT LeftUpLeg
		{
			OFFSET 11.394100 -6.187798 -0.413800
			CHANNELS 3 Xrotation Yrotation Zrotation
			JOINT LeftLeg
			{
				OFFSET 0.430247 -32.302673 3.732800
				CHANNELS 3 Xrotation Yrotation Zrotation
				JOINT LeftFoot
				{
					OFFSET -0.430247 -48.264931 -6.423300
					CHANNELS 3 Xrotation Yrotation Zrotation
					JOINT LeftToeBase
					{
						OFFSET 4.230900 -16.068199 23.438400
						CHANNELS 3 Xrotation Yrotation Zrotation
						JOINT LeftToe_End
						{
							OFFSET 4.510700 0.695400 19.974600
							CHANNELS 3 Xrotation Yrotation Zrotation
							End Site
							{
								OFFSET 0 0 0
							}
						}
					}
				}
			}
		}
	}
	JOINT RightUpLeg_virtual
	{
		OFFSET 0.000000 0.000000 0.000000
		CHANNELS 3 Xrotation Yrotation Zrotation
		JOINT RightUpLeg
		{
			OFFSET -11.333700 -6.187798 -0.413800
			CHANNELS 3 Xrotation Yrotation Zrotation
			JOINT RightLeg
			{
				OFFSET -0.430392 -32.302628 3.733000
				CHANNELS 3 Xrotation Yrotation Zrotation
				JOINT RightFoot
				{
					OFFSET 0.430392 -48.264973 -6.423500
					CHANNELS 3 Xrotation Yrotation Zrotation
					JOINT RightToeBase
					{
						OFFSET -4.230900 -16.068199 23.438400
						CHANNELS 3 Xrotation Yrotation Zrotation
						JOINT RightToe_End
						{
							OFFSET -4.510700 0.695400 19.974600
							CHANNELS 3 Xrotation Yrotation Zrotation
							End Site
							{
								OFFSET 0 0 0
							}
						}
					}
				}
			}
		}
	}
	JOINT Spine_virtual
	{
		OFFSET 0.000000 0.000000 0.000000
		CHANNELS 3 Xrotation Yrotation Zrotation
		JOINT Spine
		{
			OFFSET -0.002400 12.777504 0.315300
			CHANNELS 3 Xrotation Yrotation Zrotation
			JOINT Spine1
			{
				OFFSET -0.002067 5.816869 0.032633
				CHANNELS 3 Xrotation Yrotation Zrotation
				JOINT Spine1_split
				{
					OFFSET -0.002067 5.816869 0.032633
					CHANNELS 3 Xrotation Yrotation Zrotation
					JOINT Spine2
					{
						OFFSET -0.002067 5.816869 0.032633
						CHANNELS 3 Xrotation Yrotation Zrotation
						JOINT Neck_virtual
						{
							OFFSET 0.000000 0.000000 0.000000
							CHANNELS 3 Xrotation Yrotation Zrotation
							JOINT Neck
							{
								OFFSET -0.003700 21.199493 -0.826900
								CHANNELS 3 Xrotation Yrotation Zrotation
								JOINT Head
								{
									OFFSET 0.000000 20.442200 4.834800
									CHANNELS 3 Xrotation Yrotation Zrotation
									JOINT HeadTop_End
									{
										OFFSET 0.000000 34.668396 4.968400
										CHANNELS 3 Xrotation Yrotation Zrotation
										End Site
										{
											OFFSET 0 0 0
										}
									}
								}
							}
						}
						JOINT LeftShoulder_virtual
						{
							OFFSET 0.000000 0.000000 0.000000
							CHANNELS 3 Xrotation Yrotation Zrotation
							JOINT LeftShoulder
							{
								OFFSET 3.288150 8.794197 -1.372250
								CHANNELS 3 Xrotation Yrotation Zrotation
								JOINT LeftShoulder_split
								{
									OFFSET 3.288150 8.794197 -1.372250
									CHANNELS 3 Xrotation Yrotation Zrotation
									JOINT LeftArm
									{
										OFFSET 11.953299 -2.279007 -0.146200
										CHANNELS 3 Xrotation Yrotation Zrotation
										JOINT LeftForeArm
										{
											OFFSET 18.448900 0.000000 0.000000
											CHANNELS 3 Xrotation Yrotation Zrotation
											JOINT LeftHand
											{
												OFFSET 29.527798 0.000000 0.000000
												CHANNELS 3 Xrotation Yrotation Zrotation
												End Site
												{
													OFFSET 0 0 0
												}
											}
										}
									}
								}
							}
						}
						JOINT RightShoulder_virtual
						{
							OFFSET 0.000000 0.000000 0.000000
							CHANNELS 3 Xrotation Yrotation Zrotation
							JOINT RightShoulder
							{
								OFFSET -3.249400 8.794197 -1.372250
								CHANNELS 3 Xrotation Yrotation Zrotation
								JOINT RightShoulder_split
								{
									OFFSET -3.249400 8.794197 -1.372250
									CHANNELS 3 Xrotation Yrotation Zrotation
									JOINT RightArm
									{
										OFFSET -11.953299 -2.279007 -0.146200
										CHANNELS 3 Xrotation Yrotation Zrotation
										JOINT RightForeArm
										{
											OFFSET -18.448900 0.000000 0.000000
											CHANNELS 3 Xrotation Yrotation Zrotation
											JOINT RightHand
											{
												OFFSET -29.527802 0.000000 0.000000
												CHANNELS 3 Xrotation Yrotation Zrotation
												End Site
												{
													OFFSET 0 0 0
												}
											}
										}
									}
								}
							}
						}
					}
				}
			}
		}
	}
}
MOTION
Frames: 9
Frame Time: 0.03333333
5.524972 70.244415 128.827423 0.000000 0.000000 0.000000 7.074429 -24.842648 -0.671393 39.979512 28.046720 2.637557 1.722327 11.542797 5.392682 -15.237995 1.027658 -37.931370 -23.763415 -1.626187 -5.500132 0.000000 0.000000 0.000000 9.199798 -21.349445 -1.192384 -98.242313 -3.424082 -9.523973 43.567301 -2.741682 -4.252333 40.699342 6.425527 1.654269 -3.677192 3.913927 3.132949 0.000000 0.000000 0.000000 8.668615 -23.207668 0.272227 2.327974 -4.895106 2.092636 3.601811 -6.633248 0.702128 2.363029 -5.711739 0.606414 0.000000 0.000000 0.000000 4.366950 -6.263726 0.597688 12.944451 2.317334 10.931626 -1.159450 5.384049 -15.759471 0.000000 0.000000 0.000000 4.960572 -7.258148 -0.109241 -2.600696 -15.078276 -17.630547 -5.801254 7.696728 -0.631088 -44.374349 -11.055354 -25.356625 -19.036137 -72.739281 10.549948 0.000000 0.000000 0.000000 4.126669 -6.189469 1.273703 -0.113736 -0.099389 -0.398622 -5.439161 0.300775 -3.801056 -29.583834 41.971782 7.085287 47.348435 29.936644 -19.915238 0.000000 0.000000 0.000000 
5.444138 69.768700 132.666229 0.000000 0.000000 0.000000 9.823446 -27.874338 -1.132305 44.495493 29.000758 -0.211572 -5.018408 12.502648 7.411063 -13.258540 -1.846728 -39.763138 -29.629828 -1.672130 -2.313734 0.000000 0.000000 0.000000 12.621079 -25.053269 -1.285639 -98.044900 -3.876885 -5.065074 42.299618 -4.255841 -4.384005 37.743298 5.892970 -0.320852 -2.582701 2.809503 4.147852 0.000000 0.000000 0.000000 11.633262 -27.324011 -0.364449 2.678630 -7.653848 2.710450 3.860431 -10.152014 1.832798 1.842553 -3.727671 0.321564 0.000000 0.000000 0.000000 4.372454 -9.663253 1.939661 9.917839 5.380295 12.636523 1.478874 11.674880 -19.951514 0.000000 0.000000 0.000000 5.031171 -10.717996 1.324154 -4.571063 -20.553689 -18.513052 -6.255281 8.699395 -0.222028 -41.766378 -19.387543 -29.983663 -14.343689 -56.764538 11.031643 0.000000 0.000000 0.000000 4.208987 -9.598793 2.668805 0.028043 -2.587915 6.446718 -4.873021 -0.022680 -3.835575 -20.112604 31.435731 -0.510455 37.655191 22.704609 -8.653136 0.000000 0.000000 0.000000 
5.331908 69.912506 137.083374 0.000000 0.000000 0.000000 12.642608 -30.646956 -1.482265 45.663271 31.321277 -0.318097 -5.874238 13.433415 7.654523 -8.026817 -6.338399 -39.661157 -32.368963 -2.230835 1.799410 0.000000 0.000000 0.000000 15.839477 -27.919626 -1.286368 -97.798631 -3.059496 -0.995975 42.795445 -4.711665 -4.484366 34.572013 6.465729 -1.151170 -1.573975 2.147100 4.694696 0.000000 0.000000 0.000000 14.098182 -30.632162 -1.048495 2.928278 -9.656959 3.106437 4.293447 -12.688728 2.860174 0.883141 -2.083508 0.249884 0.000000 0.000000 0.000000 4.841679 -12.077585 3.196453 6.319354 7.851471 14.376792 3.902050 16.385815 -22.839570 0.000000 0.000000 0.000000 5.278352 -13.086412 2.666678 -5.804263 -24.678377 -17.695803 -6.270765 8.531977 -0.020123 -40.252750 -28.042708 -35.399416 -11.944388 -41.639480 8.903590 0.000000 0.000000 0.000000 4.388994 -12.086756 3.789015 0.350307 -4.649227 10.783260 -3.847348 0.079626 -2.990247 -17.319191 22.749238 -1.778716 30.756717 21.733085 -2.959480 0.000000 0.000000 0.000000 
5.135378 70.796432 142.108765 0.000000 0.000000 0.000000 15.125852 -33.947468 -1.558978 43.039826 34.761254 2.571114 -0.235003 15.002726 6.080161 0.895305 -11.567833 -36.087205 -29.169996 -2.373492 5.217742 0.000000 0.000000 0.000000 18.568564 -30.742408 -1.093693 -96.942234 -1.484505 2.567892 43.845826 -4.156206 -4.551875 31.583686 8.134953 -0.722598 -1.371123 1.953596 4.447060 0.000000 0.000000 0.000000 15.676302 -33.933056 -1.774865 2.925129 -10.764910 3.288610 4.722367 -14.159316 3.581939 0.066110 -0.993065 0.254162 0.000000 0.000000 0.000000 5.521013 -13.429995 4.083663 2.620840 9.763800 16.126507 5.650359 19.746060 -24.373434 0.000000 0.000000 0.000000 5.487986 -14.347017 3.642089 -6.213342 -27.372810 -15.520637 -5.668491 7.544685 -0.223905 -41.339556 -35.449351 -41.986477 -10.405489 -30.172149 5.937370 0.000000 0.000000 0.000000 4.517190 -13.545320 4.447372 0.648165 -5.744798 12.700373 -2.308446 0.449574 -1.722568 -17.993314 16.493001 -0.115719 24.283254 25.012477 -0.093430 0.000000 0.000000 0.000000 
4.876143 72.449379 147.321503 0.000000 0.000000 0.000000 16.878569 -38.240306 -1.202782 36.188234 37.678581 8.527504 11.128581 17.434346 3.011487 11.688468 -14.660035 -28.305603 -20.479912 -1.139754 5.940377 0.000000 0.000000 0.000000 20.399685 -34.084410 -0.660801 -94.607354 0.355395 5.456290 44.194476 -3.137757 -4.489127 28.637219 10.013412 0.318980 -1.554986 2.181442 3.608992 0.000000 0.000000 0.000000 16.480668 -37.850350 -2.311412 2.677124 -10.983240 3.263441 5.013954 -14.643673 3.881427 -0.176176 -0.378005 0.985323 0.000000 0.000000 0.000000 6.119201 -13.861581 4.477304 -0.727701 11.279758 17.760613 6.605659 22.148446 -24.653247 0.000000 0.000000 0.000000 5.449337 -14.673844 4.026911 -5.944128 -28.618925 -12.704042 -4.474217 6.157178 -0.861370 -45.091802 -40.104651 -49.062178 -9.385172 -22.649030 2.850941 0.000000 0.000000 0.000000 4.521874 -14.032928 4.617485 0.843050 -5.482132 12.631604 -0.687815 0.130697 0.211950 -20.042541 12.436817 2.724188 17.397597 28.395183 1.617229 0.000000 0.000000 0.000000 
4.375224 74.743439 152.530746 0.000000 0.000000 0.000000 17.810811 -42.840562 -0.546219 26.334300 37.903387 16.665192 26.051246 19.673236 -0.896648 19.878859 -13.695591 -18.133655 -9.690800 0.809242 3.153777 0.000000 0.000000 0.000000 20.998047 -38.293954 -0.050149 -90.358574 2.276018 7.498603 43.349998 -2.147347 -4.236253 24.841818 11.539842 1.452745 -1.059173 2.715225 2.611673 0.000000 0.000000 0.000000 16.483599 -42.211262 -2.600879 2.313050 -10.488941 3.130109 5.074221 -14.369516 3.778751 0.354163 -0.546712 1.664051 0.000000 0.000000 0.000000 6.354329 -13.595694 4.344087 -3.489535 12.445668 19.007447 6.719150 23.770158 -23.860931 0.000000 0.000000 0.000000 5.176325 -14.290478 3.846725 -5.194561 -28.620658 -9.846530 -3.263532 4.306878 -1.383269 -50.114870 -41.609775 -55.141941 -8.803817 -18.248980 0.093944 0.000000 0.000000 0.000000 4.328732 -13.771639 4.370351 0.975423 -4.150390 11.330039 0.882423 -0.983671 1.963036 -22.288996 10.147944 5.628123 10.121026 28.035915 2.793592 0.000000 0.000000 0.000000 
3.626080 77.257195 157.712448 0.000000 0.000000 0.000000 17.822054 -47.312058 0.352325 16.282143 34.592162 24.046475 41.391011 20.318464 -4.294079 22.286783 -10.342979 -9.104041 -1.255826 2.410324 -2.175945 0.000000 0.000000 0.000000 20.248811 -42.776474 0.605676 -84.376537 4.354438 8.343982 41.698349 -1.294230 -3.808965 19.839422 12.596506 2.487991 0.089274 3.312343 1.896878 0.000000 0.000000 0.000000 15.611318 -46.671024 -2.492313 2.019833 -9.558717 2.944160 4.882997 -13.661444 3.343096 1.227441 -0.556425 2.251548 0.000000 0.000000 0.000000 6.095528 -12.911973 3.777746 -5.329160 13.391113 19.569902 6.298177 24.671832 -22.320030 0.000000 0.000000 0.000000 4.776065 -13.533449 3.260467 -4.147065 -27.624683 -7.122155 -2.173124 2.387150 -2.019606 -54.833940 -41.457049 -58.725461 -8.355193 -16.097204 -2.036976 0.000000 0.000000 0.000000 3.932821 -13.045528 3.836659 1.132561 -2.473205 9.451128 2.441639 -2.304324 2.856192 -24.907128 8.905055 7.673029 3.167293 23.720241 3.166879 0.000000 0.000000 0.000000 
2.631867 79.422424 162.866196 0.000000 0.000000 0.000000 16.774938 -51.274333 1.224329 6.619844 28.676413 29.671660 55.258887 18.855895 -6.222452 19.274678 -7.372928 -2.552944 2.787520 3.428839 -8.387397 0.000000 0.000000 0.000000 18.122372 -47.056240 1.020028 -77.302968 6.809352 7.966378 40.412303 -0.394839 -3.385680 13.767249 13.124200 4.112248 0.848479 3.622797 1.707612 0.000000 0.000000 0.000000 13.955997 -50.593236 -1.972626 1.950766 -8.439116 2.683818 4.553504 -12.733068 2.725193 1.620897 -0.563002 2.407714 0.000000 0.000000 0.000000 5.433647 -12.010489 2.987346 -6.018666 13.994593 19.324734 5.741695 24.858837 -20.287810 0.000000 0.000000 0.000000 4.352176 -12.546379 2.500662 -2.930856 -25.790012 -4.621327 -1.478803 0.075316 -2.146124 -58.873307 -41.346782 -59.459474 -7.889678 -15.901012 -3.463344 0.000000 0.000000 0.000000 3.421056 -12.104374 3.179514 1.300601 -1.417272 7.116696 3.769726 -3.629851 3.050698 -28.986414 8.908751 9.090049 -2.964200 19.263174 2.694206 0.000000 0.000000 0.000000 
1.486970 80.774796 167.814606 0.000000 0.000000 0.000000 14.787173 -53.966288 1.865384 -3.190621 22.275865 33.705792 66.325255 15.877208 -6.235472 13.354242 -6.085657 1.481093 4.121599 4.132051 -13.586244 0.000000 0.000000 0.000000 14.838986 -50.060482 0.957263 -69.721827 9.678893 6.264971 40.311421 0.794526 -3.213625 6.651036 13.099435 6.906580 0.338342 3.343711 2.005877 0.000000 0.000000 0.000000 11.461266 -53.690034 -1.312213 2.113228 -7.411644 2.386966 4.115226 -11.788864 2.049228 1.570709 -0.399951 1.739668 0.000000 0.000000 0.000000 4.590189 -11.023060 2.118479 -5.332233 14.123371 18.095415 5.484884 24.238907 -18.035494 0.000000 0.000000 0.000000 4.014578 -11.453100 1.785327 -1.612148 -23.103933 -2.051863 -0.863987 -2.225857 -1.886718 -62.649767 -42.587350 -57.835849 -7.512657 -17.887830 -4.385254 0.000000 0.000000 0.000000 2.905435 -11.150199 2.483253 1.407640 -1.916999 4.285182 4.365919 -4.465075 2.651688 -36.044623 10.180167 10.458635 -8.335580 19.536674 2.666738 0.000000 0.000000 0.000000 
